<svg xmlns="http://www.w3.org/2000/svg" viewBox="0 0 668.39 705.26"><defs><style>.cls-1{isolation:isolate;}.cls-2{mix-blend-mode:color-dodge;}.cls-3{fill:none;stroke:#010200;stroke-miterlimit:10;stroke-width:7px;}.cls-4{font-size:109px;}.cls-4,.cls-5{font-family:Consolas-Bold, Consolas;font-weight:700;}.cls-5{font-size:60px;}</style></defs><g class="cls-1"><g id="Graphic_element" data-name="Graphic element"><g class="cls-2"><path class="cls-3" d="M651.08,215.77c-29.5-10.68-34.22,23.6-34.22,23.6l1.58,75c3.2,53.16-10,115-62.32,140.64-23.65,11.6-93.18,25.12-93.18,25.12S427.83,442,418.07,417.49C396,362.05,446.2,298.71,485.48,258.92c24.37-24.68,41.69-43.58,66.93-45.46" transform="translate(-253.37 -201.25)"/><path class="cls-3" d="M644.47,291.76A248.87,248.87,0,0,1,754.33,395.43l.24.45c-10.32-54-32.62-99.71-64.34-140.52l2.18,2.7c-20.85-25.72-45.24-59.27-88.48-52.41-38,6-53.17,45.38-65.22,76.83-.19.48-84.62,224-84.62,224" transform="translate(-253.37 -201.25)"/><path class="cls-3" d="M258.49,654.59c.59,31.37,34.28,23.5,34.28,23.5l69.47-28.32c48.49-22,110.9-31.85,153.63,7.85,19.3,17.93,56.81,78,56.81,78S549.6,782.08,530.25,800c-43.85,40.5-121,16.26-172.19-6.19-31.77-13.92-55.62-23.32-66.41-46.21" transform="translate(-253.37 -201.25)"/><path class="cls-3" d="M332.08,630.55a248.87,248.87,0,0,1,57.21-136.69l.33-.38c-46.7,29-81.42,66.15-108.17,110.38l1.74-3c-16.56,28.68-39.16,63.46-17.27,101.37,19.26,33.35,61.4,33.41,95.08,33.41H603.69" transform="translate(-253.37 -201.25)"/><path class="cls-3" d="M857.14,790.66c24.79-19.23-1.68-41.53-1.68-41.53L791.22,710.4c-46.65-25.7-91.86-69.83-85.61-127.82,2.83-26.18,28.55-92.18,28.55-92.18s51-9.29,76.92-4.47c58.68,10.91,85.39,87.22,98,141.69,7.84,33.78,14.57,58.52,2.68,80.86" transform="translate(-253.37 -201.25)"/><path class="cls-3" d="M789.33,748.76A248.79,248.79,0,0,1,650.1,782l-.51,0c51.15,20.1,101.72,25.68,153.16,20.66l-3.44.4c32.88-3.88,74.27-6.57,91.56-46.79,15.21-35.38-10-69.19-30.1-96.18L720.24,466.28" transform="translate(-253.37 -201.25)"/></g><text class="cls-4" transform="translate(231.63 398.75)">ACG</text><text x="-253.37" y="-201.25"/><text class="cls-5" transform="translate(130.29 687.48)">A CLEAN GLOBE</text></g></g></svg>