<svg id="Livello_1" data-name="Livello 1" xmlns="http://www.w3.org/2000/svg" viewBox="0 0 2229.81 1559.87"><defs><style>.cls-1{fill:#168d67;}.cls-2{fill:#28aee4;}.cls-3{fill:#39d77e;}.cls-4{fill:#141414;}.cls-5{fill:#f9fdfe;}.cls-6{fill:#b4b4b4;}.cls-7{fill:#fff;}</style></defs><path class="cls-1" d="M2586.12,1753.63q1.24,20.92,2.48,41.85c2.6,44.79-.73,89.23-8.79,133.26a595.31,595.31,0,0,1-63.69,180,602.46,602.46,0,0,1-74,106.38,685,685,0,0,1-56,56.92c-22.81,20.76-48,38.77-73.88,55.61a561.19,561.19,0,0,1-67.56,37.83,552.84,552.84,0,0,1-71.55,28c-16.14,5-32.13,10.95-48.64,14.12-57.51,11.07-115.45,17.61-174.23,13.05-23.27-1.81-46.28-5.18-69.38-8.31-36.41-4.92-71-16-105.29-28.49-21.94-8-43.54-17.11-64-28.3a708.48,708.48,0,0,1-72.37-45.07,625.9,625.9,0,0,1-86.76-75.48c-16.53-17.14-31.22-35.84-45.66-54.76-12.9-16.92-24-35-35.54-52.82-8.37-12.89-14-27.38-21.31-40.88-15-27.6-25.62-57-35.22-86.6a339.65,339.65,0,0,1-11.32-45.72c-3.38-19.15-6.9-38.27-9.55-57.54-4.46-32.43-5.1-65-4.14-97.7,0-1.66,0-3.33.06-5a8.3,8.3,0,0,0,.17-5.87c1.23-17.83,2.7-35.63,5.54-53.29a60.85,60.85,0,0,0,.33-6.9c.71-1.33,1.09-2.63-.26-3.81,3.25-2.33,2.43-6,2.82-9.15,2.32-18.4,6.8-36.26,11.82-54.11,5.3-18.78,11.12-37.32,18.23-55.49,4.58-11.71,9.62-23.21,14.66-34.74,5.91-13.51,12.81-26.52,19.75-39.4a491.06,491.06,0,0,1,33.73-54.15c9.61-13.34,19.59-26.39,30.16-39a580.81,580.81,0,0,1,64.43-66.24c13.84-12,28-23.51,42.58-34.51,21.63-16.26,44.6-30.3,68.29-43.3,31.44-17.24,64.34-30.84,98.34-42.16,33-11,66.75-18.38,101-23.81,4.27-.67,8.58-1.06,12.86-1.57,0,1.13.07,2.26.11,3.39-34.65,7.45-69.19,15.2-102.52,27.63-27.45,10.24-54.59,21.26-80.17,35.49-35.53,19.78-69.59,41.78-100.76,68.22a576.17,576.17,0,0,0-65.2,64.37,467.66,467.66,0,0,0-55.44,80.49c-1.9.62-2.39,2.07-2.31,3.87l0,0a3.62,3.62,0,0,0-2.08,3.95v0a3.59,3.59,0,0,0-2,3.92l0,0a2.13,2.13,0,0,0-1.4,2.55l.1-.14c-4.06.72-4.72,4.46-6.11,7.3q-7.9,16.13-15.39,32.46a488.16,488.16,0,0,0-29,80.58c-7.86,30.19-14,60.67-16.43,91.91-1.38,17.86-2.45,35.73-3.48,53.61-.61,10.68,1.71,21.21,1.7,31.8,0,22.36,3.18,44.41,7,66.23A563,563,0,0,0,1467.82,1985c14.36,38.5,32.22,75.16,54.52,109.63,28.51,44.06,61.75,84,101.49,118.57a601.67,601.67,0,0,0,72.41,54.42,554.91,554.91,0,0,0,110.12,53.49,536.58,536.58,0,0,0,96.36,24.54c20.61,3.32,41.4,5.83,62.3,6.24,35.23.7,70.37.16,105.35-5.57,25.26-4.14,50.28-9.14,74.74-16.5a547.5,547.5,0,0,0,111-46.7c36.69-20.62,70.93-44.63,102.06-72.81a571.16,571.16,0,0,0,69.1-74.6,578.36,578.36,0,0,0,78.42-137.34c.8-2,3-4,.42-6.25,5.28-14.51,12.45-28.36,15.94-44.09-5.11-1.14-8.91,1-12.65,2.87-8.46,4.2-15.44,10.38-21.9,17.18-14.53,15.29-26.25,32.71-37.89,50.18-20.5,30.78-41,61.54-65.54,89.38-45.83,52-99.25,93.54-164.12,119.3-41.95,16.65-85.49,25.31-130.68,24.46-32.89-.62-65-5.94-95.25-19.46-13.17-5.87-25.46-13.15-35.62-23.57-20.4-20.93-18.21-43.12,6-59.63,14-9.55,29.77-14.82,46-18.63,29.48-6.88,59.1-13.23,88.57-20.15a239,239,0,0,0,47.21-16c10.31-4.84,20-10.59,27.76-19.19,7.22-8,10.9-17.32,10.33-28.29-.21-4-1.84-5.17-5.61-4.78-9.27,1-18.56,1.76-27.85,2.53-30.23,2.5-60.53,3.11-90.84,3.85-36,.89-71.91,2.67-107.22,10.45-53.31,11.74-97.12,39.14-132.31,80.66-23.86,28.13-42.68,59.46-58.92,92.43-1.92,3.89-3.8,7.78-5.76,11.64-.27.54-.92.89-2.09,2-18.45-10.67-37-21.63-53.9-35.17a23.49,23.49,0,0,1,2-7.68q7.24-18.57,15.15-36.87a342.4,342.4,0,0,1,56.15-89.06c31.6-36.23,69-64.93,113.66-84.2,43.43-18.74,88.8-26.58,135.55-28,20.56-.62,41,2.31,61.57,3.4,22.54,1.2,45,2.68,67.56,4,19.89,1.19,39.84.95,59.78,1.87,19.52.9,39.16,1.26,58.78-1.15,13.79-1.69,27.81-.79,41.77-1.93,21.84-1.77,43.46-4.48,65-8.1,40.25-6.73,78.93-17.88,114.69-38.07,22-12.4,41.22-28,56.38-48.19,21.31-28.41,32.39-60.51,34.54-96,.58-9.53.76-19.25,2.64-28.72C2585.4,1752.09,2585.76,1752.86,2586.12,1753.63ZM2255.53,2174c33.48-38.93,72.57-108.58,74-132.34-5.55-.53-10.29,1.6-14.91,4.16-7.4,4.1-13.4,9.83-18.8,16.25-9.27,11-16.67,23.28-23.71,35.78-11.59,20.61-22.59,41.57-34.74,61.84-17.31,28.86-37.64,55-69.5,69.71,9.58-.35,18.38-3.39,27.12-6.38,66.66-22.81,121.53-62.82,167.31-115.74,26.85-31,48.08-65.46,60.34-105,.64-2,2.41-4.2,0-6.54-6.47,0-12.09,2.85-17.62,5.89-8.58,4.72-15.65,11.3-22.32,18.33-9.89,10.44-18.4,22-26.5,33.8-12.81,18.69-25.23,37.64-38.19,56.23-17.21,24.67-35.88,48.1-60,66.61A3.38,3.38,0,0,1,2255.53,2174Z" transform="translate(-886.64 -1219.78)"/><path class="cls-2" d="M2005.67,1514.05c-37.06-1.14-73.19-8.86-106.91-26.36-14.58-7.57-28-16.8-38.7-29.46-30-35.47-26.49-83.37,8.06-114.4,21.87-19.64,47.94-30.91,75.84-38.5,61.33-16.67,119.95-9.3,175.82,20.55,14.83,7.92,27.7,18.45,37.69,32.16,22.85,31.36,20.64,72.22-5.39,101-15.53,17.2-34.92,28.59-56.18,37A254.51,254.51,0,0,1,2005.67,1514.05Z" transform="translate(-886.64 -1219.78)"/><path class="cls-3" d="M2585,1751.33c-1.88,9.47-2.06,19.19-2.64,28.72-2.15,35.54-13.23,67.64-34.54,96-15.16,20.2-34.42,35.79-56.38,48.19-35.76,20.19-74.44,31.34-114.69,38.07-21.58,3.62-43.2,6.33-65,8.1-14,1.14-28,.24-41.77,1.93-19.62,2.41-39.26,2-58.78,1.15-19.94-.92-39.89-.68-59.78-1.87-22.52-1.33-45-2.81-67.56-4-20.52-1.09-41-4-61.57-3.4-46.75,1.41-92.12,9.25-135.55,28-44.66,19.27-82.06,48-113.66,84.2a342.4,342.4,0,0,0-56.15,89.06q-7.93,18.3-15.15,36.87a23.49,23.49,0,0,0-2,7.68c-14.85-9.06-27.38-21-40.62-32.12-4.48-3.76-1.68-7.25-.31-10.69a459.62,459.62,0,0,1,49.14-92.39c36.45-52.59,81.72-95.52,138.7-125.39a310.22,310.22,0,0,1,109-33.88c27.34-3.2,54.5-1.55,81.68,1,21.84,2.05,43.6,5,65.45,7q50.16,4.58,100.39,8.37a987.33,987.33,0,0,0,118.8,1.65c49.69-2.29,98.76-8.76,145.29-27.76,28.72-11.73,54.35-28,74.59-52.08,16.93-20.14,25.76-43.89,32.42-68.83a175.44,175.44,0,0,0,5.33-57.06l2.64-.95a14.68,14.68,0,0,0,1.6,8,3.08,3.08,0,0,0,.38,3.78c-.09,3.47,0,6.92,1.52,10.15Z" transform="translate(-886.64 -1219.78)"/><path class="cls-1" d="M2543.78,1707.74a206.61,206.61,0,0,1-.74,66.68c-9.75,54.48-42.31,89.31-93.8,107.53-25.29,9-51.45,13.69-78.07,16-48,4.16-95.85,2.21-143.76-1.41-55.82-4.23-111.37-11.24-167.14-15.83-38.17-3.14-76.34-6-114.77-3.18-118.22,8.68-211.36,61.1-279.07,158.46-19.1,27.45-34.44,57-47.41,87.74-1,2.44-2.19,4.83-3.3,7.28-7.08-4.66-24.13-25.47-31.84-38.76a7.37,7.37,0,0,0,3.85-4.34,415.06,415.06,0,0,1,26.89-53.36,400.17,400.17,0,0,1,82.55-99.14,381.32,381.32,0,0,1,109.5-66.41c47.66-18.94,97.62-27.23,148.74-28.83a253.79,253.79,0,0,1,32.81,1.46c13.84,1.37,27.83.95,41.78,1.89,19.19,1.3,38.3,3.61,57.49,4.89,6.88.46,13.86,1.25,20.77,2q24.18,2.76,48.34,5.6c13.5,1.56,27,3.14,40.48,4.65,16.12,1.8,32.24,3.66,48.39,5.26,10.89,1.08,21.85,1.59,32.74,2.51,19.52,1.65,39,2.86,58.6,3.35,13.93.36,27.85-.43,41.8-1.35a340.17,340.17,0,0,0,57.95-8.49c22.26-5.38,42.94-14.32,60.72-28.9,20.57-16.88,32.36-39.31,38.68-64.82,4.91-19.79,5.7-40,6.06-60.26l-.05,0C2542.57,1707.92,2543.17,1707.82,2543.78,1707.74Z" transform="translate(-886.64 -1219.78)"/><path class="cls-3" d="M2542,1708c-.36,20.25-1.15,40.47-6.06,60.26-6.32,25.51-18.11,47.94-38.68,64.82-17.78,14.58-38.46,23.52-60.72,28.9a340.17,340.17,0,0,1-57.95,8.49c-14,.92-27.87,1.71-41.8,1.35-19.56-.49-39.08-1.7-58.6-3.35-10.89-.92-21.85-1.43-32.74-2.51-16.15-1.6-32.27-3.46-48.39-5.26-13.5-1.51-27-3.09-40.48-4.65q-24.17-2.8-48.34-5.6c-6.91-.78-13.89-1.57-20.77-2-19.19-1.28-38.3-3.59-57.49-4.89-14-.94-27.94-.52-41.78-1.89a253.79,253.79,0,0,0-32.81-1.46c-51.12,1.6-101.08,9.89-148.74,28.83a381.32,381.32,0,0,0-109.5,66.41,400.17,400.17,0,0,0-82.55,99.14,415.06,415.06,0,0,0-26.89,53.36,7.37,7.37,0,0,1-3.85,4.34c-6.42-4.92-10.86-11.4-14.64-18.43-1.4-2.6-3-5.1-4.62-7.59-8.6-13.24-8.74-13.3-.52-27.45a444.4,444.4,0,0,1,30.46-45.88c12-15.82,24.76-31.1,39.12-44.88a481.14,481.14,0,0,1,208.68-119c32-8.61,64.6-14.28,98-15.51,48-1.77,95.65,2.44,143.27,7.94,54.16,6.26,108,15.24,162,22,45.23,5.67,90.58,10.8,136.31,8.16,27.68-1.61,54.92-5.65,80.46-17.44,27.48-12.68,47.85-32.57,59.36-60.57,4.78-11.63,7.76-24.1,10.57-36.41,4.28-18.8,5.06-38,3.7-57.19,1.21-1.09,2.47-2,4.2-1.15q.53,2.79,1,5.56c-.14,1.1-.27,2.2-.4,3.31C2540.46,1694.56,2538.33,1701.44,2542,1708Z" transform="translate(-886.64 -1219.78)"/><path class="cls-2" d="M1677.55,1549.71c4.27,5.92,8.19,11.69,12.44,17.2,23.75,30.8,53.48,54.52,87,73.83,10.55,6.08,11,3.41,5.52,16.38-16.7,39.24-30.93,79.34-41.15,120.8-1.59,6.43-3.58,12.76-5.37,19.14-1.28,4.57-3.91,6.2-7.53,4.09-53.93-31.56-103.48-68-137.25-122.26-4.54-7.31-5.34-12.74-.63-20.61,22.71-37.91,49.21-72.78,80.58-103.93C1672.81,1552.73,1674.18,1550.74,1677.55,1549.71Z" transform="translate(-886.64 -1219.78)"/><path class="cls-2" d="M2279.45,1802.52c-3.51-3.25-3.29-6.82-4-10a845.51,845.51,0,0,0-45.4-136.28c-.79-1.83-1.43-3.73-2.29-5.54-1.39-2.92-.75-5,2.13-6.59,3.8-2.08,7.55-4.25,11.27-6.47,35.88-21.49,67.25-47.9,90.61-83.06,3.93-5.91,4.18-5.9,9.39-.77,32.52,32,59.82,68,82.71,107.4,3.1,5.35,2.8,9.46-.35,14.63-22.57,37-52.52,67-87.54,92.15A411.29,411.29,0,0,1,2279.45,1802.52Z" transform="translate(-886.64 -1219.78)"/><path class="cls-2" d="M2245.66,1814.91l-97.38-16c-38.7-6.34-77.42-12.41-116.33-17.4-19.79-2.53-16.38,2.34-16.59-18.41-.19-18.64.08-37.29.13-55.93,0-11.57.22-9.16,9.85-10.22,12.23-1.33,24.56-1.25,36.83-2.57,48-5.16,94.22-16.73,138.5-36,.61-.27,1.23-.51,1.84-.77,7.72-3.24,7.84-3.3,11,4.07a828.52,828.52,0,0,1,30.22,81.34c6.11,19.69,11.8,39.51,16.45,59.6,1.93,8.34-1.05,12.23-9.51,12.4a32,32,0,0,1-4.93-.66Z" transform="translate(-886.64 -1219.78)"/><path class="cls-2" d="M1997.86,1605.77q0,32.49,0,65c0,9-.1,9.3-8.5,9-59.09-2.35-116.29-13.42-170.64-37.44-8.71-3.84-8.75-4-4.75-12.2a787.06,787.06,0,0,1,71.9-119.81c4.81-6.6,4.86-6.57,12.6-2.83a234.27,234.27,0,0,0,87.35,22.87c1.67.12,3.32.38,5,.4,5.42,0,7.25,2.57,7.19,8.08C1997.7,1561.11,1997.86,1583.44,1997.86,1605.77Z" transform="translate(-886.64 -1219.78)"/><path class="cls-2" d="M2015.49,1604.77q0-31.45,0-62.92c0-10.62,0-10.87,11-11.43a237,237,0,0,0,44.28-7,218.47,218.47,0,0,0,42.16-15.23c9.28-4.43,8.18-6.25,15.73,4.25a756.18,756.18,0,0,1,49.28,77.44c7.19,13.13,14,26.46,20.76,39.83,4.3,8.55,4.12,8.73-4.28,12.47-35.17,15.64-71.93,25.78-109.89,31.74a511.93,511.93,0,0,1-60.55,5.76c-8.27.31-8.41.06-8.44-8C2015.44,1649.38,2015.49,1627.07,2015.49,1604.77Z" transform="translate(-886.64 -1219.78)"/><path class="cls-2" d="M1751.18,1806.13c13.85-52.71,29.46-103.12,51.65-151.91a454.6,454.6,0,0,0,52.8,20.5,483.82,483.82,0,0,0,120.42,21.58c5.31.26,10.61,1,15.92,1.09,4.15.07,6,1.46,5.94,5.83-.09,23-.11,45.94.14,68.9.07,5.53-2.9,6.09-6.93,5.52-11.9-1.66-23.88-1.65-35.85-2-32.63-1-65.24-.62-97.52,4.6-14.59,2.36-29.16,4.92-43.61,8.36-19.28,4.58-38.05,10.57-56.74,17C1756.19,1806,1754.79,1805.82,1751.18,1806.13Z" transform="translate(-886.64 -1219.78)"/><path class="cls-4" d="M2735,2657V2549c0-2.33.06-4.66,0-7,0-2.85,1.22-4.32,4.2-4.2,2,.08,4,0,6,0,26,0,52,.53,78-.13,36.12-.92,71.69,32.38,65.07,75.2-1.71,11.07-6.53,20.64-13.56,29.24-4.65,5.69-4.6,5.79.93,10,29.38,22.21,38.34,68,11.93,99.46-9.59,11.44-20.64,20.37-35,24.81a73.54,73.54,0,0,1-21.39,3c-29.33.15-58.66.1-88,0-8.06,0-8.05-.14-8.22-8.44V2657Zm30.89,50.45c0,11.3.15,22.61-.07,33.92-.09,4.65.48,7.2,6.29,7.08,20.28-.4,40.58.13,60.85-.34,22.55-.53,39.33-18.29,39.2-40.61a39.59,39.59,0,0,0-39.07-39.68c-20.28-.4-40.57.1-60.85-.24-5.59-.1-6.56,2.09-6.44,6.95C2766.05,2685.49,2765.86,2696.46,2765.86,2707.44Zm32.73-71.12c8.33,0,16.65.06,25,0a35.38,35.38,0,0,0,10.83-1.42,34.23,34.23,0,0,0,23.51-36.36c-1.72-16.15-15.93-29.43-33.42-30s-35.29-.05-52.93-.24c-4.32-.05-5.81,1.39-5.77,5.72.16,19,.19,38,0,56.93-.05,4.57,1.82,5.56,5.88,5.46C2780.61,2636.18,2789.61,2636.32,2798.59,2636.32Z" transform="translate(-886.64 -1219.78)"/><path class="cls-3" d="M2506.16,1992.1c2.55,2.26.38,4.26-.42,6.25a578.36,578.36,0,0,1-78.42,137.34,571.16,571.16,0,0,1-69.1,74.6c-31.13,28.18-65.37,52.19-102.06,72.81a547.5,547.5,0,0,1-111,46.7c-24.46,7.36-49.48,12.36-74.74,16.5-35,5.73-70.12,6.27-105.35,5.57-20.9-.41-41.69-2.92-62.3-6.24a536.58,536.58,0,0,1-96.36-24.54,554.91,554.91,0,0,1-110.12-53.49,601.67,601.67,0,0,1-72.41-54.42c-39.74-34.56-73-74.51-101.49-118.57-22.3-34.47-40.16-71.13-54.52-109.63a563,563,0,0,1-27.06-100.83c-3.78-21.82-7-43.87-7-66.23,0-10.59-2.31-21.12-1.7-31.8,1-17.88,2.1-35.75,3.48-53.61,2.43-31.24,8.57-61.72,16.43-91.91a488.16,488.16,0,0,1,29-80.58q7.48-16.32,15.39-32.46c1.39-2.84,2.05-6.58,6.11-7.3-.28,3.81-2.51,6.82-4.13,10.06-21.61,43.11-36.67,88.53-46.07,135.68a569.14,569.14,0,0,0-9.81,147.14c4,64.32,18.12,126.41,43.57,185.77,19.29,45,43.36,87.24,74,125.38,81.66,101.63,184.85,170.87,313.13,197.21,173.49,35.63,331.54-.75,470.27-112.35,68.88-55.42,120.39-124.93,157.08-205.38C2502.32,1999.84,2504.28,1996,2506.16,1992.1Z" transform="translate(-886.64 -1219.78)"/><path class="cls-4" d="M2444.06,2657.84c.22-19.63,2.22-39.11,12.32-56.34,23.3-39.75,57.46-62.26,104.39-63.73,38.2-1.19,69.55,13.41,94.88,41.33,32.38,35.7,38.53,88,18.56,130.28-10.24,21.67-25.52,38.39-45.09,51.48-21.71,14.51-46.09,19.94-71.84,18.13-10.64-.75-21.59-.09-31.93-4.49-13.46-5.73-26-12.07-37.46-21.94-10.64-9.21-20.06-19-27.56-30.57-11-17-15.55-36.08-16.26-56.16C2444,2663.17,2444.06,2660.5,2444.06,2657.84Zm210.24,1c1.72-45.06-36.47-90.37-89.9-90.21a89.74,89.74,0,0,0,.22,179.48C2614.51,2748.17,2654.2,2708.67,2654.3,2658.87Z" transform="translate(-886.64 -1219.78)"/><path class="cls-4" d="M1863.65,2703.85q.07-76.41.16-152.82c0-2.33.18-4.68,0-7-.44-4.55,1-6.8,6-6.49,6,.36,12,.23,18,0,4.13-.13,6.33,1.21,6,5.66-.17,2,0,4,0,6V2767c0,2-.13,4,0,6,.38,4.76-1.9,6.39-6.48,6.54-6.81.22-11.58-1-16.32-7.48-34.55-47-69.83-93.52-104.82-140.22-4.87-6.49-9.47-13.17-14.2-19.76.18-1,0-2.09-1-2.32s-1.55.64-1.55,1.68c-.12,19.32-.31,38.64-.35,58,0,33.66,0,67.32,0,101,0,8.95-.11,9-8.67,9.07-5.33.06-10.66-.06-16,0-3.28.05-5-1.35-4.95-4.69,0-2.33,0-4.67,0-7v-219a10.26,10.26,0,0,1,0-2c.6-3-1.78-6.93,2.23-8.9,3.66-1.8,11.84,0,14.47,3.38,7.32,9.33,14.45,18.8,21.56,28.3q34.66,46.26,69.26,92.59c9.08,12.15,18.06,24.36,27.15,36.49,1.58,2.11,3.51,3.94,5.27,5.9.47,2,1.63,4.43,3.49,4C1865.26,2708.13,1864.05,2705.61,1863.65,2703.85Z" transform="translate(-886.64 -1219.78)"/><path class="cls-4" d="M2151.94,2570.13c-12.3-2.14-24.3-1.9-35.62,4.23a10.76,10.76,0,0,1-2.67,1.29c-33.65,7.18-57.65,43.16-59.59,73.77-1.29,20.34,1.19,39.76,13,56.92,16.31,23.74,37.8,39.13,67.48,41.72,24.54,2.14,45.76-5.39,64.83-20.19a7.82,7.82,0,0,0,3.29-6.75q-.36-15.49,0-31c.1-4.43-2.29-4.73-5.62-4.7-9.67.08-19.34-.15-29,.1-4.68.12-6.66-1.38-6.44-6.27.3-6.65.19-13.33,0-20-.09-3.92,1.65-5.18,5.39-5.16q30.51.15,61,0c4.07,0,6.11,1.11,6.08,5.63-.13,25-.08,50,0,75a8.14,8.14,0,0,1-2.38,6.28,225.29,225.29,0,0,1-19,16.65c-10.51,8-22.58,13.2-34.77,17a106,106,0,0,1-40.27,4.67c-15.07-1.26-30.25-2.2-44.07-9.44-10.93-5.72-22.5-10.41-30.33-20.73-2.75-3.62-6.46-6.47-9.73-9.58-14.31-13.63-22.55-30.41-27.15-49.22-3.07-12.5-4.63-25.32-3.52-38.14,1.22-14.2,1-28.78,8.18-41.89,4.82-8.81,9.18-17.9,15.32-25.93,2.31-.17,4.11-1,4.57-3.54,10.33-14.48,24.37-24.86,40.12-32,23.53-10.7,48.55-13.65,74.27-9.17,25.1,4.37,46.08,16.1,64.19,34.88-5.82,5.76-10.34,11.88-16.23,17-4.65,4.06-8.17,3.69-11.92.11a63.31,63.31,0,0,0-22.6-14.18c-8-2.85-15.21-8.8-24.55-7.08Z" transform="translate(-886.64 -1219.78)"/><path class="cls-2" d="M1576.12,1687.33c36.71,58.26,88.35,98.21,148.35,130-8.45,6.3-17.23,9.93-25.61,14.06a388.65,388.65,0,0,0-71.56,46q-12.42,10-24.25,20.68c-3.61,3.26-6.08,3.92-9.86.07-21.88-22.34-44.08-44.38-61.23-70.81-2-3.07-3.8-5.65-2.78-10,10.34-43.92,24.56-86.44,44.65-126.92A38.4,38.4,0,0,1,1576.12,1687.33Z" transform="translate(-886.64 -1219.78)"/><path class="cls-4" d="M2988,2748l113.9.27c2.33,0,4.66,0,7,0,7.25.17,7.33.18,7.46,7,.12,6-.21,12,.1,18,.25,4.92-1.84,6.68-6.47,6.17a27.1,27.1,0,0,0-3,0h-141.9c-1.67,0-3.33-.05-5,0-3.21.08-5-1.31-5.06-4.65,0-2.33,0-4.66,0-7V2549c0-2,.09-4,0-6-.18-3.81,1.5-5.37,5.36-5.19,4.65.21,9.32,0,14,0h130.9c2.33,0,4.67.07,7,0,3-.08,4.15,1.36,4.13,4.21,0,7.33-.11,14.66,0,22,.07,3.65-1.83,4.41-5,4.38-10.66-.08-21.32,0-32,0q-42.46,0-84.94,0c-8.33,0-8.43.09-8.45,7.89q-.09,29.47,0,58.95c0,7.56.12,7.7,7.62,7.72,26,.06,52,0,77.94.06,9.31,0,9.33.08,9.41,9.18,0,4.66.08,9.33,0,14-.14,7.76-.18,7.84-8.67,7.85q-36.47.06-72.94,0c-2,0-4,0-6,0-7.17.15-7.33.16-7.34,6.95,0,21.65.07,43.3.12,64.95C2985.75,2747.51,2986.29,2748.26,2988,2748Z" transform="translate(-886.64 -1219.78)"/><path class="cls-4" d="M1318,2747.83c4,.16,8,.45,12,.46q54,0,108,0c8.15,0,8.19.12,8.27,8.2.06,6-.06,12,0,18,0,3.27-1.23,5-4.64,4.91-2,0-4,0-6,0h-140a31.38,31.38,0,0,0-4,0c-5.54.72-6.81-2.11-6.71-7.07.24-11.66.07-23.33.07-35v-186c0-2,0-4,0-6,.17-7.49.18-7.62,7.79-7.62q73-.06,146,0c7.33,0,7.37.15,7.45,7.89.06,6-.12,12,0,18,.1,3.47-1.31,4.85-4.69,4.67-2.33-.13-4.67,0-7,0q-55.49,0-111,0c-7.54,0-7.67.12-7.68,7.63,0,21.33.09,42.66.14,64-.49,1.41-.19,2.39,1.45,2.61q27.4.2,54.82.36c9.64.05,19.28,0,28.92,0s10,.08,9.72,9.81c-.21,6.81,3.16,15.43-1.9,20-4.47,4-12.73,1.16-19.3,1.21q-33.4.22-66.82,0c-4.58,0-7.3.4-7.18,6.27.47,21.92.41,43.85.55,65.78C1315.94,2747.48,1316.47,2748.12,1318,2747.83Z" transform="translate(-886.64 -1219.78)"/><path class="cls-2" d="M1859.7,1480.82c3.32,4.27,7.72,7.3,12,10.4,3.08,2.21,3.61,4.43,1.12,7.41-1.48,1.79-2.72,3.78-4.07,5.68a797.94,797.94,0,0,0-69.46,116.46c-4.8,9.94-4.87,10.06-14.45,4.5-33.78-19.57-63.76-43.57-86.21-75.94-10.44-15.06-9.84-11.95,2.72-22.64,36.18-30.78,76-56.06,118.46-77.28,1.78-.89,3.61-1.71,5.35-2.69,4-2.23,6.53-1.44,8.82,2.75,4.13,7.58,8.62,15,15.24,20.81A29.09,29.09,0,0,0,1859.7,1480.82Z" transform="translate(-886.64 -1219.78)"/><path class="cls-2" d="M2218.79,1630.21c-8.93-17-17.08-33-25.74-48.69a779.22,779.22,0,0,0-51.52-80.87c-4.37-6.06-4.41-6.22,1.48-10.71,14.48-11,26.72-24,35.76-39.92,3.24-5.69,3.48-5.7,10.13-2.54a578.46,578.46,0,0,1,58.53,32.44,534,534,0,0,1,67.52,49.76c7.79,6.8,7.83,6.94,2.27,15.36-16,24.22-36.36,44.18-59.77,61.14A283.79,283.79,0,0,1,2218.79,1630.21Z" transform="translate(-886.64 -1219.78)"/><path class="cls-4" d="M1652.75,2779.44a141,141,0,0,0-6.36-17c-7.43-17-14.32-34.25-21.43-51.41-2.78-6.72-6-13.31-8.2-20.21-1.55-4.73-4.23-5.89-8.78-5.84-17,.18-34,.07-51,.07h-8c-19.62,0-19.58,0-26.79,18-7.45,18.55-15,37.07-22.48,55.62-2.26,5.63-4.57,11.25-6.45,17-1,3-2.29,4.06-5.59,3.91-7.65-.35-15.33-.39-23-.07-4.8.21-5.06-3.26-4.2-5.68,1.28-3.58,2.08-7.47,3.83-10.77,6.3-11.89,10.63-24.66,16-36.93,5.62-12.82,10.74-26,16.13-38.94,7.57-18.24,14.93-36.56,22.51-54.8,7.08-17,14.41-34,21.49-51,5.23-12.58,10.36-25.22,15.26-37.93,1.52-3.93,4.13-5.63,8-6.05a12.15,12.15,0,0,1,2,0c6.64.26,14.23-2.19,19.66,1,5,2.89,5.35,10.75,7.91,16.34,9.83,21.38,18.5,43.27,27.51,65q16.93,40.8,33.93,81.56c9.81,23.52,19.14,47.26,29,70.76,2.57,6.13,1.88,7.26-5.1,7.4C1670,2779.57,1661.37,2779.44,1652.75,2779.44Zm-79.59-196.68c-10.35,25-20.58,48.12-29.87,72.63,11.14,0,20.75,0,30.36,0,9.41,0,18.81-.12,29.53-.19C1592.93,2630.45,1583.34,2607.32,1573.16,2582.76Z" transform="translate(-886.64 -1219.78)"/><path class="cls-4" d="M917.74,2656.63c-.59,38.75,17.56,65.14,48.21,81.72,27.43,14.84,56.61,14.25,84.41-1.74,6.45-3.7,7.27-3.66,11.64,2.57,3,4.3,5.87,8.72,8.92,13,4.1,5.77,3.94,8.08-2.57,11.56a156.42,156.42,0,0,1-18.53,7.93c-18.21,6.9-36.95,8.56-56.39,7-13.33-1.07-26.14-3.76-37.86-9.49-11.32-5.54-22.42-11.79-30.83-22.13-6.8-8.36-15.52-14.93-21.3-24.5a112.11,112.11,0,0,1-15.79-43.94c-2.15-16.1-.38-31.89.74-47.75.43-6.07,3.26-12.13,5.79-17.86,13.9-31.5,35.44-55.1,68.65-67.18,37.29-13.57,72.79-10.62,107.07,9.28,4.37,2.54,4.75,4.44,1.64,8.37a177.39,177.39,0,0,0-10.45,15.6c-2.31,3.65-5.06,4.81-9.15,2.84-7.54-3.64-15-7.56-22.82-10.48-7.51-2.8-15.59-3.31-23.62-3-27.3.87-50.08,11.54-67.4,32.63C924.44,2617.65,916.76,2636.79,917.74,2656.63Z" transform="translate(-886.64 -1219.78)"/><path class="cls-2" d="M1575.6,1647.22c-6.92-12.88-10.28-26.07-13.11-39.31-5.47-25.66-5.1-51.34-1.59-77.41,1.83-13.64,9.56-22.73,16.69-32.82,14.59-20.65,35.46-33.75,56.55-46.54,3.33-2,6.86-3.66,10.11-5.94,3.6-2.53,6.14-.93,6,3.61a184.22,184.22,0,0,0,2.85,36.77,172,172,0,0,0,13.07,41.8c1.54,3.37,1.91,5.89-1.15,8.79-34,32.33-62.45,69.14-86.93,109.09C1577.8,1645.77,1577.11,1646.06,1575.6,1647.22Z" transform="translate(-886.64 -1219.78)"/><path class="cls-2" d="M2421.69,1482.84c6.9,9.72,15,18.46,21.94,28.2,6.69,9.43,8.79,20,9.85,30.86,3.36,34.65-.3,68.45-13.72,100.87-.63,1.52-1.45,3-2.15,4.38-3.19-.2-3.65-2.86-4.75-4.68a510,510,0,0,0-83.21-104.38c-3.87-3.71-5-6.35-2.54-11.82a164.05,164.05,0,0,0,15.13-75.65c-.08-1.94-.51-3.95,1.21-6.92,18.46,10,36.16,21.18,52.45,34.56C2417.18,1480.61,2419.67,1481.44,2421.69,1482.84Z" transform="translate(-886.64 -1219.78)"/><path class="cls-2" d="M2287.53,1817.64c59.77-30.93,111.78-71.4,148.47-129,3.13,0,3.38,2.3,4.17,3.93,14,28.78,25.06,58.69,34.45,89.28,1.73,5.65,0,8.5-4,11.74-17.3,13.86-37.26,21.62-58.65,26.29-26.94,5.9-54.24,5-81.51,4.11a390.78,390.78,0,0,1-40.68-3.82C2288.56,1820,2287,1820.15,2287.53,1817.64Z" transform="translate(-886.64 -1219.78)"/><path class="cls-2" d="M1682.21,1518.75c-5-6.86-6.62-15.07-9-22.92-5.13-17.12-5.78-34.68-5.06-52.41.37-9.09,3.86-15,12.6-18.88,43.19-19.11,87-36.17,133.9-43.85,3.2-.52,6.51-1.67,10.3.57-.61,4-1.2,8.23-1.9,12.43a69,69,0,0,0,0,22.85c1.82,11,1.81,11-7.84,15.83a645.38,645.38,0,0,0-81,47.35c-15.62,10.8-30.64,22.39-45.2,34.58C1687.09,1516,1685.38,1518.09,1682.21,1518.75Z" transform="translate(-886.64 -1219.78)"/><path class="cls-2" d="M2330.56,1518.46c-3,0-4.68-2.29-6.64-4-38.91-33.29-81.92-60.26-127.73-82.91-8-3.94-7.74-3.87-6.71-12.41,1.25-10.25,1.5-20.54-.6-30.78-1.79-8.75-1.15-9.5,7.44-8a463.71,463.71,0,0,1,70.48,17.84,493.5,493.5,0,0,1,70.37,30.36c3.72,2,6.36,3.9,6.83,8.74,2.53,26.28-.24,51.77-10.25,76.33C2333,1515.42,2332.53,1517.43,2330.56,1518.46Z" transform="translate(-886.64 -1219.78)"/><path class="cls-4" d="M1109,2657.92V2549c0-2.33.08-4.67,0-7-.07-2.79.94-4.36,4-4.33,7.67.09,15.33,0,23,0,3,0,4.09,1.58,4,4.39-.06,2.33,0,4.66,0,7V2737c0,2.33.08,4.67,0,7-.11,2.94,1.23,4.24,4.14,4.15,2.33-.06,4.67,0,7,0q44,0,88,0c8.61,0,8.64.09,8.71,8.84.05,5.66-.23,11.34.08,17,.24,4.54-1.73,5.53-5.88,5.52-42-.11-84,0-126-.11-7,0-7.09-.22-7.1-8.52Q1108.93,2714.41,1109,2657.92Z" transform="translate(-886.64 -1219.78)"/><path class="cls-4" d="M2316.36,2642.83v91.89c0,13.42,0,13.42,13.91,13.42q43,0,85.9,0c7.68,0,7.73.13,7.84,7.59.08,5.66-.28,11.34.1,17,.36,5.35-1.85,6.87-6.92,6.81-17.32-.22-34.63-.09-51.94-.09h-68.92c-10.92,0-10.95,0-10.95-10.66q0-103.87,0-207.76c0-5.66.19-11.32-.06-17-.19-4.45.83-6.84,6-6.5a158,158,0,0,0,19,0c5-.28,6.18,1.75,6.14,6.39-.18,22.3-.08,44.61-.08,66.92Z" transform="translate(-886.64 -1219.78)"/><path class="cls-2" d="M1540.59,1565.75a218.56,218.56,0,0,0,20.6,92.82c3.3,7.06,3,12.46-.53,19.46a562.93,562.93,0,0,0-40.84,106.07c-1.21,4.38-1.53,9.17-4.73,13.35-10.93-15.4-15.78-32.88-20.63-50.39-3.43-12.36-2.46-24.62-1.18-37.27,2.5-24.69,8.54-48.58,15.5-72.13a326,326,0,0,1,19.34-51c3.43-7,5.62-14.69,9.87-21.38Z" transform="translate(-886.64 -1219.78)"/><path class="cls-2" d="M1675.43,1407.2c1.77-9.43,6.64-17,11-24.57,4.12-7.22,12-11,18.53-15.63a516.47,516.47,0,0,1,83.49-48c14.8-6.81,30.29-12.12,45.43-18.19a23.59,23.59,0,0,1,14.59-1c11.23,2.61,22.48,5.13,32.76,10.47.17,3.27-2.48,3.92-4.22,5.11-16.09,11.07-30.14,24.15-40.33,41a9.85,9.85,0,0,1-8,5.05c-51.74,6.21-100.48,22.36-147.37,44.59a25,25,0,0,1-3.64,1.52C1677.14,1407.69,1676.44,1407.36,1675.43,1407.2Z" transform="translate(-886.64 -1219.78)"/><path class="cls-2" d="M2130.8,1310.79c12.27-7.49,25.79-10.83,39.59-11.42,6.18-.27,12.65,3.4,18.8,5.76,39.64,15.23,77.14,34.55,112,58.84,5.43,3.78,10.8,7.63,16.28,11.32,11.27,7.58,14.43,19.68,18.6,31.37-3,1.3-4.5-.43-6.15-1.23-42.74-20.75-87.43-35.68-134.48-42.31-12.12-1.71-19.62-6.23-25.94-16.24-7.33-11.6-18.11-20.26-29.19-28.36C2137.17,1316.21,2133.3,1314.7,2130.8,1310.79Z" transform="translate(-886.64 -1219.78)"/><path class="cls-2" d="M2473.89,1564.37c3.59,11.7,10.21,22,15,33.24,10,23.51,18.06,47.54,22.43,72.66,5.7,32.79.88,64-15.4,93.29a39.48,39.48,0,0,1-3.34,5,9.69,9.69,0,0,1-2.16,1.62c-3-1.09-2.7-3.87-3.32-5.9a533.29,533.29,0,0,0-36.09-88.62c-2.74-5.28-2.82-9.43-.28-14.82,14.42-30.53,22-62.65,21.35-96.56l.93-.13Z" transform="translate(-886.64 -1219.78)"/><path class="cls-2" d="M1522.88,1848.6a4.48,4.48,0,0,1,4.27,2.16,365,365,0,0,0,53,57c7.25,6.28,7.33,6.73.44,14-15.65,16.42-28.25,35.07-40.59,53.94-4.26,6.52-4.75,6.4-8.82-.12-5.75-9.2-11.48-18.39-16.26-28.17a25.18,25.18,0,0,1-2.86-13.39C1514.35,1905.46,1517.53,1877.07,1522.88,1848.6Z" transform="translate(-886.64 -1219.78)"/><path class="cls-2" d="M1878.15,1289.91c9.7-5.6,20.29-6.7,30.58-8.75,25.79-5.16,51.9-7.76,78.16-9,2.65-.12,5.32,0,8,.07,2.05.08,2.76,1.47,2.83,3.32s-.58,3.32-2.5,3.71a33.87,33.87,0,0,1-5,.47c-28.46,1.58-56,7.49-82.13,18.88-4.66,2-8.59,2.52-13-.59A61.12,61.12,0,0,0,1878.15,1289.91Z" transform="translate(-886.64 -1219.78)"/><path class="cls-2" d="M2135.43,1289.08c-7.66,4-14.63,7.51-21.46,11.26-2.51,1.38-4.47.3-6.56-.62a239.07,239.07,0,0,0-85.88-20,18.36,18.36,0,0,1-3-.32c-2.41-.52-3.08-2.3-2.83-4.47.23-2,1.63-2.76,3.48-2.75,4.65,0,9.32,0,14,.26,31.47,2.1,62.68,6,93.32,13.7C2129.22,1286.83,2131.88,1287.9,2135.43,1289.08Z" transform="translate(-886.64 -1219.78)"/><path class="cls-2" d="M1496.09,1891.76c-1.36-9.5-2.6-19-4.11-28.48-4-24.64-4.07-49.53-5.25-74.35-.06-1.32-.28-2.63-.42-3.94l3.62-.81c3.6,12.5,10.15,23.63,16.5,34.8,2.46,4.33,2.88,8.16,2,13.09-3.51,19.51-8.21,38.87-8.79,58.83Z" transform="translate(-886.64 -1219.78)"/><path class="cls-2" d="M1629.26,1432.54c8.09-8.49,16.06-17.1,26.5-25.72.61,8.46-.68,13.59-7.27,16.86-6.12,3-11.89,6.77-17.81,10.2Z" transform="translate(-886.64 -1219.78)"/><path class="cls-3" d="M1914.29,1229.87c0-1.13-.07-2.26-.11-3.39a321.65,321.65,0,0,1,59.61-4.25,11.16,11.16,0,0,0-.75,1.46c-16.9-.57-33.33,3.39-50,5.35C1920.15,1229.38,1917.3,1230.4,1914.29,1229.87Z" transform="translate(-886.64 -1219.78)"/><path class="cls-2" d="M2374.36,1427.53c-6.37-1.19-11.29-4.39-16.15-7.59-4.26-2.81-.22-7-1.73-10.61C2363.59,1414.7,2369.79,1420.33,2374.36,1427.53Z" transform="translate(-886.64 -1219.78)"/><path class="cls-5" d="M1973,1223.69a11.16,11.16,0,0,1,.75-1.46c4.89-4,9.86-2.37,14.9-.13C1983.7,1225,1978.31,1223.77,1973,1223.69Z" transform="translate(-886.64 -1219.78)"/><path class="cls-5" d="M2582.28,1726.91l-2.64.95c-2.89-4.24-1.88-8.43,0-14.33C2583.28,1718.57,2581.38,1723,2582.28,1726.91Z" transform="translate(-886.64 -1219.78)"/><path class="cls-5" d="M1859.7,1480.82a29.09,29.09,0,0,1-10.45-10.54C1855.69,1470.86,1859.21,1474.35,1859.7,1480.82Z" transform="translate(-886.64 -1219.78)"/><path class="cls-1" d="M2542,1708c-3.69-6.55-1.56-13.43-1.17-20.21l1.25,1.91c.17,3.29.33,6.59.49,9.88-.21,2.82-.41,5.64-.62,8.46Z" transform="translate(-886.64 -1219.78)"/><path class="cls-5" d="M2540.22,1678.91c-1.73-.85-3,.06-4.2,1.15v-9.74l1-.31Q2538.62,1674.47,2540.22,1678.91Z" transform="translate(-886.64 -1219.78)"/><path class="cls-5" d="M2421.69,1482.84c-2-1.4-4.51-2.23-5.79-4.58C2420.32,1476.06,2420.93,1476.55,2421.69,1482.84Z" transform="translate(-886.64 -1219.78)"/><path class="cls-5" d="M1496.09,1891.76l3.55-.86a6,6,0,0,1,.11.94c0,1.78.9,4.63-1.36,4.82C1494.83,1897,1496.49,1893.63,1496.09,1891.76Z" transform="translate(-886.64 -1219.78)"/><path class="cls-6" d="M1389.9,1788.12a8.3,8.3,0,0,1-.17,5.87C1385.44,1791.29,1385.45,1790.79,1389.9,1788.12Z" transform="translate(-886.64 -1219.78)"/><path class="cls-6" d="M1863.65,2703.85c.4,1.76,1.61,4.28-.83,4.77-1.86.38-3-2-3.49-4Z" transform="translate(-886.64 -1219.78)"/><path class="cls-3" d="M2542,1708c.21-2.82.41-5.64.62-8.46,1.79,2.53,1.58,5.34,1.19,8.17C2543.17,1707.82,2542.57,1707.92,2542,1708Z" transform="translate(-886.64 -1219.78)"/><path class="cls-5" d="M2381.11,1432c1.33.31,2.5.77,2.08,2.5a1.07,1.07,0,0,1-.64.66c-1.72.45-2.2-.72-2.53-2A1.65,1.65,0,0,1,2381.11,1432Z" transform="translate(-886.64 -1219.78)"/><path class="cls-5" d="M1395.51,1724.12c1.35,1.18,1,2.48.26,3.81C1393.93,1726.77,1393.83,1725.5,1395.51,1724.12Z" transform="translate(-886.64 -1219.78)"/><path class="cls-5" d="M1540.59,1565.75l-2.6-.43c.3-1.48.7-3.22,2.67-2.39C1542.05,1563.51,1541.61,1564.81,1540.59,1565.75Z" transform="translate(-886.64 -1219.78)"/><path class="cls-6" d="M2050.86,2580.84c-.46,2.55-2.26,3.37-4.57,3.54C2046.09,2581,2048.51,2581,2050.86,2580.84Z" transform="translate(-886.64 -1219.78)"/><path class="cls-5" d="M1489.93,1784.18l-3.62.81c0-1.46-.64-3.45,1.35-3.87C1489.93,1780.64,1489.66,1782.78,1489.93,1784.18Z" transform="translate(-886.64 -1219.78)"/><path class="cls-5" d="M2542.1,1689.69l-1.25-1.91c.14-1.11.27-2.21.41-3.31Z" transform="translate(-886.64 -1219.78)"/><path class="cls-5" d="M2584.26,1738.74a3.08,3.08,0,0,1-.38-3.78C2584,1736.22,2584.14,1737.48,2584.26,1738.74Z" transform="translate(-886.64 -1219.78)"/><path class="cls-5" d="M2585,1751.33l.75-2.44c.11,1.58.23,3.16.34,4.74C2585.76,1752.86,2585.4,1752.09,2585,1751.33Z" transform="translate(-886.64 -1219.78)"/><path class="cls-3" d="M1505.83,1513.86a3.62,3.62,0,0,1,2.08-3.95C1507.91,1511.59,1507.58,1513.1,1505.83,1513.86Z" transform="translate(-886.64 -1219.78)"/><path class="cls-3" d="M1507.89,1509.94c-.08-1.8.41-3.25,2.31-3.87C1509.86,1507.62,1509.71,1509.28,1507.89,1509.94Z" transform="translate(-886.64 -1219.78)"/><path class="cls-3" d="M1503.79,1517.8a3.59,3.59,0,0,1,2-3.92C1505.9,1515.58,1505.52,1517,1503.79,1517.8Z" transform="translate(-886.64 -1219.78)"/><path class="cls-2" d="M2380,1433.13c-.82-1-2.23-1.6-1.91-3.25l-.15.19,3.15,1.94A1.65,1.65,0,0,0,2380,1433.13Z" transform="translate(-886.64 -1219.78)"/><path class="cls-2" d="M2378.11,1429.88l-1.78-.09.54-1.15,1.09,1.43Z" transform="translate(-886.64 -1219.78)"/><path class="cls-6" d="M2151.94,2570.13l2.2.27c-.29.44-.53,1.21-.88,1.27C2152.18,2571.85,2152,2571,2151.94,2570.13Z" transform="translate(-886.64 -1219.78)"/><path class="cls-3" d="M1502.37,1520.4a2.13,2.13,0,0,1,1.4-2.55C1503.84,1519,1503.65,1520,1502.37,1520.4Z" transform="translate(-886.64 -1219.78)"/><path class="cls-6" d="M1749.39,2611.42c0-1,.55-1.94,1.55-1.68s1.13,1.32,1,2.32Z" transform="translate(-886.64 -1219.78)"/><path class="cls-6" d="M1317.47,2642.6c-1.64-.22-1.94-1.2-1.45-2.61C1316.5,2640.86,1317,2641.73,1317.47,2642.6Z" transform="translate(-886.64 -1219.78)"/><path class="cls-5" d="M2473.89,1564.37l-.9-.26-.93.13C2472.8,1562.52,2473.39,1562.74,2473.89,1564.37Z" transform="translate(-886.64 -1219.78)"/><path class="cls-5" d="M1318,2747.83c-1.52.29-2-.35-1.71-1.81Z" transform="translate(-886.64 -1219.78)"/><path class="cls-6" d="M2988,2748c-1.69.22-2.23-.53-1.8-2.11Z" transform="translate(-886.64 -1219.78)"/><path class="cls-5" d="M2258.07,2176.64c24.08-18.51,42.75-41.94,60-66.61,13-18.59,25.38-37.54,38.19-56.23,8.1-11.83,16.61-23.36,26.5-33.8,6.67-7,13.74-13.61,22.32-18.33,5.53-3,11.15-5.93,17.62-5.89,2.42,2.34.65,4.49,0,6.54-12.26,39.49-33.49,73.91-60.34,105-45.78,52.92-100.65,92.93-167.31,115.74-8.74,3-17.54,6-27.12,6.38,31.86-14.68,52.19-40.85,69.5-69.71,12.15-20.27,23.15-41.23,34.74-61.84,7-12.5,14.44-24.76,23.71-35.78,5.4-6.42,11.4-12.15,18.8-16.25,4.62-2.56,9.36-4.69,14.91-4.16-1.46,23.76-40.55,93.41-74,132.34a12.88,12.88,0,0,0-6.14,7.28l-2.14,1.71c1.35,1.4,2.18.32,3-.63A13.18,13.18,0,0,0,2258.07,2176.64Z" transform="translate(-886.64 -1219.78)"/><path class="cls-6" d="M2258.07,2176.64a13.18,13.18,0,0,1-7.78,5.71c-.31-.36-.61-.72-.9-1.09a12.89,12.89,0,0,1,6.14-7.27A3.38,3.38,0,0,0,2258.07,2176.64Z" transform="translate(-886.64 -1219.78)"/><path class="cls-7" d="M2765.86,2707.44c0-11,.19-22-.09-32.92-.12-4.86.85-7.05,6.44-6.95,20.28.34,40.57-.16,60.85.24a39.59,39.59,0,0,1,39.07,39.68c.13,22.32-16.65,40.08-39.2,40.61-20.27.47-40.57-.06-60.85.34-5.81.12-6.38-2.43-6.29-7.08C2766,2730.05,2765.86,2718.74,2765.86,2707.44Z" transform="translate(-886.64 -1219.78)"/><path class="cls-5" d="M2798.59,2636.32c-9,0-18-.14-27,.06-4.06.1-5.93-.89-5.88-5.46.22-19,.19-38,0-56.93,0-4.33,1.45-5.77,5.77-5.72,17.64.19,35.3-.34,52.93.24s31.7,13.85,33.42,30a34.23,34.23,0,0,1-23.51,36.36,35.38,35.38,0,0,1-10.83,1.42C2815.24,2636.38,2806.92,2636.32,2798.59,2636.32Z" transform="translate(-886.64 -1219.78)"/><path class="cls-7" d="M2654.3,2658.87c-.1,49.8-39.79,89.3-89.68,89.27a89.74,89.74,0,0,1-.22-179.48C2617.83,2568.5,2656,2613.81,2654.3,2658.87Z" transform="translate(-886.64 -1219.78)"/><path class="cls-5" d="M1573.16,2582.76c10.18,24.56,19.77,47.69,30,72.44-10.72.07-20.12.15-29.53.19-9.61,0-19.22,0-30.36,0C1552.58,2630.88,1562.81,2607.73,1573.16,2582.76Z" transform="translate(-886.64 -1219.78)"/><path class="cls-6" d="M2250.29,2182.35c-.86,1-1.69,2-3,.63l2.14-1.71Q2249.82,2181.81,2250.29,2182.35Z" transform="translate(-886.64 -1219.78)"/></svg>